<?xml version="1.0" encoding="UTF-8"?><svg id="Layer_1" xmlns="http://www.w3.org/2000/svg" viewBox="0 0 230.011 229.761"><defs><style>.cls-1,.cls-2{fill:#fff;}.cls-3{stroke-dasharray:0 0 6.126 9.189;}.cls-3,.cls-4,.cls-5,.cls-2,.cls-6,.cls-7,.cls-8,.cls-9,.cls-10,.cls-11{stroke-miterlimit:10;}.cls-3,.cls-4,.cls-5,.cls-6,.cls-7,.cls-8,.cls-9,.cls-10,.cls-11{fill:none;}.cls-3,.cls-4,.cls-10{stroke:#000;}.cls-12{opacity:.5;}.cls-5{stroke-width:6px;}.cls-5,.cls-7,.cls-11{stroke:#fff;}.cls-5,.cls-10{stroke-linecap:round;}.cls-2{stroke:#999;stroke-width:.5px;}.cls-6,.cls-8{stroke:#ccc;}.cls-6,.cls-9{stroke-width:2px;}.cls-7,.cls-10{stroke-width:3px;}.cls-13{fill:#999;}.cls-9{stroke:#b3b3b3;}.cls-11{stroke-width:4px;}</style></defs><g id="New_Symbol"><g><g><g><line class="cls-8" x1="138.621" y1="21.117" x2="114.977" y2="54.72"/><line class="cls-8" x1="91.332" y1="21.117" x2="114.977" y2="54.72"/><line class="cls-8" x1="49.46" y1="43.093" x2="114.977" y2="54.72"/><line class="cls-8" x1="22.596" y1="82.012" x2="61.438" y2="147.451"/><line class="cls-8" x1="16.896" y1="128.956" x2="61.438" y2="147.451"/><line class="cls-8" x1="33.665" y1="173.172" x2="61.438" y2="147.451"/><line class="cls-8" x1="69.062" y1="204.53" x2="61.438" y2="147.451"/><line class="cls-8" x1="160.891" y1="204.53" x2="168.515" y2="147.451"/><line class="cls-8" x1="196.288" y1="173.172" x2="168.515" y2="147.451"/><line class="cls-8" x1="213.057" y1="128.956" x2="168.515" y2="147.451"/><line class="cls-8" x1="207.357" y1="82.012" x2="168.515" y2="147.451"/><line class="cls-8" x1="180.493" y1="43.093" x2="114.977" y2="54.72"/></g><polygon class="cls-6" points="138.621 21.117 91.332 21.117 49.46 43.093 22.596 82.012 16.896 128.956 33.665 173.172 69.062 204.53 114.977 215.847 160.891 204.53 196.288 173.172 213.057 128.956 207.357 82.012 180.493 43.093 138.621 21.117"/><polygon class="cls-1" points="75.239 69.183 114.977 54.72 154.714 69.183 175.858 105.806 168.515 147.451 136.121 174.634 93.833 174.634 61.438 147.451 54.095 105.806 75.239 69.183"/><polygon class="cls-9" points="154.714 69.183 175.858 105.806 136.121 174.634 75.239 69.183 54.095 105.806 93.833 174.634 154.714 69.183"/><polyline class="cls-7" points="61.438 147.451 138.825 147.451 168.515 147.451"/><g><line class="cls-4" x1="61.438" y1="147.451" x2="64.438" y2="147.451"/><line class="cls-3" x1="73.627" y1="147.451" x2="160.921" y2="147.451"/><line class="cls-4" x1="165.515" y1="147.451" x2="168.515" y2="147.451"/></g><line class="cls-5" x1="114.977" y1="54.72" x2="61.438" y2="147.451"/><line class="cls-10" x1="114.977" y1="54.72" x2="61.438" y2="147.451"/><line class="cls-5" x1="114.977" y1="54.72" x2="168.515" y2="147.451"/><line class="cls-10" x1="114.977" y1="54.72" x2="168.515" y2="147.451"/><g><g><path d="M91.332,27.238c-3.376,0-6.122-2.746-6.122-6.121s2.746-6.122,6.122-6.122,6.121,2.746,6.121,6.122-2.746,6.121-6.121,6.121Z"/><path class="cls-1" d="M91.332,19.496c.894,0,1.622,.727,1.622,1.621s-.728,1.621-1.622,1.621-1.621-.727-1.621-1.621,.727-1.621,1.621-1.621m0-9c-5.866,0-10.621,4.755-10.621,10.621s4.755,10.621,10.621,10.621,10.622-4.755,10.622-10.621-4.755-10.621-10.622-10.621h0Z"/></g><g><path d="M138.621,27.238c-3.376,0-6.122-2.746-6.122-6.121s2.746-6.122,6.122-6.122,6.121,2.746,6.121,6.122-2.746,6.121-6.121,6.121Z"/><path class="cls-1" d="M138.621,19.496c.894,0,1.622,.727,1.622,1.621s-.728,1.621-1.622,1.621-1.621-.727-1.621-1.621,.727-1.621,1.621-1.621m0-9c-5.866,0-10.621,4.755-10.621,10.621s4.755,10.621,10.621,10.621,10.622-4.755,10.622-10.621-4.755-10.621-10.622-10.621h0Z"/></g><g><path d="M138.621,27.238c-3.376,0-6.122-2.746-6.122-6.121s2.746-6.122,6.122-6.122,6.121,2.746,6.121,6.122-2.746,6.121-6.121,6.121Z"/><path class="cls-1" d="M138.621,19.496c.894,0,1.622,.727,1.622,1.621s-.728,1.621-1.622,1.621-1.621-.727-1.621-1.621,.727-1.621,1.621-1.621m0-9c-5.866,0-10.621,4.755-10.621,10.621s4.755,10.621,10.621,10.621,10.622-4.755,10.622-10.621-4.755-10.621-10.622-10.621h0Z"/></g><g><circle cx="180.493" cy="43.093" r="6.121"/><path class="cls-1" d="M180.493,41.472c.894,0,1.622,.727,1.622,1.621s-.728,1.621-1.622,1.621-1.622-.727-1.622-1.621,.728-1.621,1.622-1.621m0-9c-5.866,0-10.622,4.755-10.622,10.621s4.755,10.621,10.622,10.621,10.622-4.755,10.622-10.621-4.755-10.621-10.622-10.621h0Z"/></g><g><path d="M207.357,88.133c-3.376,0-6.122-2.746-6.122-6.122s2.746-6.121,6.122-6.121,6.121,2.746,6.121,6.121-2.746,6.122-6.121,6.122Z"/><path class="cls-1" d="M207.357,80.39c.894,0,1.621,.727,1.621,1.621s-.727,1.621-1.621,1.621-1.622-.727-1.622-1.621,.728-1.621,1.622-1.621m0-9c-5.866,0-10.622,4.755-10.622,10.621s4.755,10.621,10.622,10.621,10.621-4.755,10.621-10.621-4.755-10.621-10.621-10.621h0Z"/></g><g><path d="M213.057,135.077c-3.376,0-6.122-2.746-6.122-6.122s2.746-6.122,6.122-6.122,6.121,2.746,6.121,6.122-2.746,6.122-6.121,6.122Z"/><path class="cls-1" d="M213.056,127.334c.894,0,1.622,.727,1.622,1.621s-.728,1.621-1.622,1.621-1.621-.727-1.621-1.621,.727-1.621,1.621-1.621m0-9c-5.866,0-10.621,4.755-10.621,10.621s4.755,10.621,10.621,10.621,10.622-4.755,10.622-10.621-4.755-10.621-10.622-10.621h0Z"/></g><g><path d="M196.287,179.293c-3.375,0-6.121-2.746-6.121-6.122s2.746-6.121,6.121-6.121,6.122,2.746,6.122,6.121-2.746,6.122-6.122,6.122Z"/><path class="cls-1" d="M196.288,171.55c.894,0,1.621,.727,1.621,1.621s-.727,1.621-1.621,1.621-1.622-.727-1.622-1.621,.728-1.621,1.622-1.621m0-9c-5.866,0-10.622,4.755-10.622,10.621s4.755,10.621,10.622,10.621,10.621-4.755,10.621-10.621-4.755-10.621-10.621-10.621h0Z"/></g><g><path d="M160.892,210.652c-3.376,0-6.122-2.746-6.122-6.122s2.746-6.121,6.122-6.121,6.121,2.746,6.121,6.121-2.746,6.122-6.121,6.122Z"/><path class="cls-1" d="M160.891,202.909c.894,0,1.622,.727,1.622,1.621s-.728,1.621-1.622,1.621-1.622-.727-1.622-1.621,.728-1.621,1.622-1.621m0-9c-5.866,0-10.622,4.755-10.622,10.621s4.755,10.621,10.622,10.621,10.622-4.755,10.622-10.621-4.755-10.621-10.622-10.621h0Z"/></g><g><path d="M114.977,221.031c-2.858,0-5.185-2.325-5.185-5.184s2.326-5.184,5.185-5.184,5.184,2.326,5.184,5.184-2.325,5.184-5.184,5.184Z"/><path class="cls-1" d="M114.976,212.163c2.031,0,3.684,1.653,3.684,3.684s-1.653,3.684-3.684,3.684-3.684-1.653-3.684-3.684,1.652-3.684,3.684-3.684m0-3c-3.691,0-6.684,2.992-6.684,6.684s2.992,6.684,6.684,6.684,6.684-2.992,6.684-6.684-2.993-6.684-6.684-6.684h0Z"/></g><g><path d="M49.459,49.215c-3.375,0-6.121-2.746-6.121-6.122s2.746-6.122,6.121-6.122,6.122,2.746,6.122,6.122-2.746,6.122-6.122,6.122Z"/><path class="cls-1" d="M49.46,41.472c.894,0,1.622,.727,1.622,1.621s-.728,1.621-1.622,1.621-1.622-.727-1.622-1.621,.728-1.621,1.622-1.621m0-9c-5.866,0-10.622,4.755-10.622,10.621s4.755,10.621,10.622,10.621,10.622-4.755,10.622-10.621-4.755-10.621-10.622-10.621h0Z"/></g><g><path d="M22.596,88.133c-3.375,0-6.121-2.746-6.121-6.122s2.746-6.121,6.121-6.121,6.122,2.746,6.122,6.121-2.746,6.122-6.122,6.122Z"/><path class="cls-1" d="M22.596,80.39c.894,0,1.622,.727,1.622,1.621s-.728,1.621-1.622,1.621-1.622-.727-1.622-1.621,.728-1.621,1.622-1.621m0-9c-5.866,0-10.622,4.755-10.622,10.621s4.755,10.621,10.622,10.621,10.622-4.755,10.622-10.621-4.755-10.621-10.622-10.621h0Z"/></g><g><path d="M16.897,135.077c-3.376,0-6.122-2.746-6.122-6.122s2.746-6.122,6.122-6.122,6.121,2.746,6.121,6.122-2.746,6.122-6.121,6.122Z"/><path class="cls-1" d="M16.896,127.334c.894,0,1.622,.727,1.622,1.621s-.728,1.621-1.622,1.621-1.621-.727-1.621-1.621,.727-1.621,1.621-1.621m0-9c-5.866,0-10.621,4.755-10.621,10.621s4.755,10.621,10.621,10.621,10.622-4.755,10.622-10.621-4.755-10.621-10.622-10.621h0Z"/></g><g><path d="M33.665,179.293c-3.375,0-6.121-2.746-6.121-6.122s2.746-6.121,6.121-6.121,6.121,2.746,6.121,6.121-2.746,6.122-6.121,6.122Z"/><path class="cls-1" d="M33.665,171.55c.894,0,1.622,.727,1.622,1.621s-.728,1.621-1.622,1.621-1.622-.727-1.622-1.621,.728-1.621,1.622-1.621m0-9c-5.866,0-10.622,4.755-10.622,10.621s4.755,10.621,10.622,10.621,10.622-4.755,10.622-10.621-4.755-10.621-10.622-10.621h0Z"/></g><g><path d="M69.062,210.652c-3.376,0-6.122-2.746-6.122-6.122s2.746-6.121,6.122-6.121,6.121,2.746,6.121,6.121-2.746,6.122-6.121,6.122Z"/><path class="cls-1" d="M69.062,202.909c.894,0,1.621,.727,1.621,1.621s-.727,1.621-1.621,1.621-1.622-.727-1.622-1.621,.728-1.621,1.622-1.621m0-9c-5.866,0-10.622,4.755-10.622,10.621s4.755,10.621,10.622,10.621,10.621-4.755,10.621-10.621-4.755-10.621-10.621-10.621h0Z"/></g></g><g><g><path class="cls-1" d="M114.977,59.277c-2.513,0-4.557-2.044-4.557-4.556s2.044-4.557,4.557-4.557,4.557,2.044,4.557,4.557-2.044,4.556-4.557,4.556Z"/><path d="M114.976,51.164c1.961,0,3.557,1.595,3.557,3.557s-1.596,3.557-3.557,3.557-3.556-1.595-3.556-3.557,1.595-3.557,3.556-3.557m0-2c-3.069,0-5.556,2.488-5.556,5.557s2.487,5.557,5.556,5.557,5.557-2.488,5.557-5.557-2.488-5.557-5.557-5.557h0Z"/></g><g><path d="M154.714,72.74c-1.961,0-3.557-1.596-3.557-3.557s1.596-3.556,3.557-3.556,3.557,1.595,3.557,3.556-1.596,3.557-3.557,3.557Z"/><path class="cls-1" d="M154.714,67.627c.858,0,1.557,.698,1.557,1.557s-.698,1.557-1.557,1.557-1.557-.698-1.557-1.557,.698-1.557,1.557-1.557m0-4c-3.069,0-5.557,2.488-5.557,5.557s2.488,5.557,5.557,5.557,5.557-2.488,5.557-5.557-2.488-5.557-5.557-5.557h0Z"/></g><g><path d="M175.858,109.362c-1.961,0-3.556-1.596-3.556-3.557s1.595-3.557,3.556-3.557,3.557,1.596,3.557,3.557-1.596,3.557-3.557,3.557Z"/><path class="cls-1" d="M175.858,104.249c.858,0,1.557,.698,1.557,1.557s-.698,1.557-1.557,1.557-1.557-.698-1.557-1.557,.698-1.557,1.557-1.557m0-4c-3.069,0-5.557,2.488-5.557,5.557s2.488,5.557,5.557,5.557,5.557-2.488,5.557-5.557-2.488-5.557-5.557-5.557h0Z"/></g><g><circle cx="168.515" cy="147.451" r="4.557"/><path class="cls-1" d="M168.515,143.895c1.961,0,3.557,1.595,3.557,3.557s-1.596,3.557-3.557,3.557-3.557-1.595-3.557-3.557,1.596-3.557,3.557-3.557m0-2c-3.069,0-5.557,2.488-5.557,5.557s2.488,5.557,5.557,5.557,5.557-2.488,5.557-5.557-2.488-5.557-5.557-5.557h0Z"/></g><g><circle cx="93.832" cy="174.633" r="3.557"/><path class="cls-1" d="M93.832,173.077c.858,0,1.557,.698,1.557,1.557s-.698,1.557-1.557,1.557-1.556-.698-1.556-1.557,.698-1.557,1.556-1.557m0-4c-3.068,0-5.556,2.488-5.556,5.557s2.488,5.557,5.556,5.557,5.557-2.488,5.557-5.557-2.488-5.557-5.557-5.557h0Z"/></g><g><circle cx="61.438" cy="147.451" r="4.557"/><path class="cls-1" d="M61.438,143.895c1.961,0,3.557,1.595,3.557,3.557s-1.596,3.557-3.557,3.557-3.557-1.595-3.557-3.557,1.596-3.557,3.557-3.557m0-2c-3.069,0-5.557,2.488-5.557,5.557s2.488,5.557,5.557,5.557,5.557-2.488,5.557-5.557-2.488-5.557-5.557-5.557h0Z"/></g><g><circle cx="54.095" cy="105.806" r="3.557"/><path class="cls-1" d="M54.095,104.249c.858,0,1.557,.698,1.557,1.557s-.698,1.557-1.557,1.557-1.557-.698-1.557-1.557,.698-1.557,1.557-1.557m0-4c-3.069,0-5.557,2.488-5.557,5.557s2.488,5.557,5.557,5.557,5.557-2.488,5.557-5.557-2.488-5.557-5.557-5.557h0Z"/></g><g><circle cx="136.12" cy="174.633" r="3.557"/><path class="cls-1" d="M136.12,173.077c.858,0,1.557,.698,1.557,1.557s-.698,1.557-1.557,1.557-1.557-.698-1.557-1.557,.698-1.557,1.557-1.557m0-4c-3.069,0-5.557,2.488-5.557,5.557s2.488,5.557,5.557,5.557,5.557-2.488,5.557-5.557-2.488-5.557-5.557-5.557h0Z"/></g><g><path d="M75.239,72.74c-1.961,0-3.557-1.596-3.557-3.557s1.596-3.556,3.557-3.556,3.557,1.595,3.557,3.556-1.596,3.557-3.557,3.557Z"/><path class="cls-1" d="M75.239,67.627c.858,0,1.556,.698,1.556,1.557s-.698,1.557-1.556,1.557-1.557-.698-1.557-1.557,.698-1.557,1.557-1.557m0-4c-3.069,0-5.557,2.488-5.557,5.557s2.488,5.557,5.557,5.557,5.556-2.488,5.556-5.557-2.487-5.557-5.556-5.557h0Z"/></g></g><line class="cls-11" x1="119.917" y1="129.433" x2="112.887" y2="141.62"/><line class="cls-9" x1="119.917" y1="129.433" x2="112.887" y2="141.62"/></g><g class="cls-12"><g><g><path class="cls-1" d="M114.582,211.786l.087-.234-.136,.216c-3.335-1.23-6.484-2.392-6.484-5.292,0-2.42,2.276-3.667,4.737-4.655,.585-.225,1.187-.448,1.797-.671l.027-.02,.103-.036c2.252-.82,5.336-1.944,5.336-3.437,0-1.506-3.211-2.676-5.336-3.451l-.452-.165,.396-.275c.063-.044,.132-.067,.176-.082,.619-.226,1.218-.448,1.786-.67l.092-.036,.091,.036c2.466,.976,4.748,2.214,4.748,4.642,0,2.416-2.282,3.651-4.748,4.627-.568,.236-1.173,.46-1.785,.684l-.027,.019-.104,.037c-2.125,.775-5.336,1.946-5.336,3.451,0,1.475,3.085,2.617,5.337,3.451l.651,.241-.581,.203,.088,.451-.13,.776-.055,.29-.277-.103Z"/><path class="cls-13" d="M116.709,193.249c2.53,1.001,4.59,2.184,4.59,4.409s-2.06,3.394-4.59,4.395c-.57,.236-1.17,.459-1.78,.681-.04,.014-.09,.028-.13,.056-2.48,.904-5.5,2.045-5.5,3.686s3.02,2.768,5.5,3.686c-.04,.014-.09,.028-.13,.042l.13,.668-.13,.682c-3.28-1.21-6.37-2.337-6.37-5.077,0-2.225,2.05-3.408,4.58-4.423,.58-.223,1.18-.445,1.79-.668,.04-.014,.09-.028,.13-.056,2.48-.904,5.5-2.031,5.5-3.672s-3.02-2.782-5.5-3.686c.04-.028,.09-.042,.13-.056,.61-.222,1.21-.445,1.78-.668m.001-.537l-.184,.072c-.566,.221-1.163,.442-1.769,.664-.062,.02-.152,.051-.245,.115l-.791,.55,.905,.33c1.934,.705,5.171,1.885,5.171,3.216,0,1.317-3.112,2.451-5.171,3.202l-.062,.023-.054,.038c-.626,.218-1.229,.442-1.812,.665-2.549,1.023-4.901,2.321-4.901,4.89,0,3.075,3.229,4.266,6.648,5.528l.049,.018,.554,.204,.11-.58,.13-.682,.018-.095-.019-.095-.046-.239,1.032-.361-1.303-.482c-2.06-.763-5.173-1.915-5.173-3.217,0-1.331,3.237-2.511,5.171-3.216l.061-.022,.053-.037c.572-.199,1.215-.436,1.817-.686,2.541-1.006,4.898-2.292,4.898-4.857s-2.358-3.865-4.906-4.874l-.183-.072h0Z"/></g><path class="cls-2" d="M114.799,210.161c.04,.014,.08,.028,.12,.042l-.12,.668-.13-.668c.04-.014,.09-.028,.13-.042Z"/><g><path class="cls-1" d="M112.787,193.481c-2.461-.974-4.738-2.21-4.738-4.641s2.282-3.666,4.749-4.641c.583-.224,1.184-.447,1.784-.67l.217,.193-.088-.234c2.398-.901,5.338-2.006,5.338-3.466,0-1.492-3.084-2.616-5.336-3.437l-.452-.165,.396-.275c.062-.043,.125-.064,.171-.08,.624-.228,1.224-.449,1.791-.671l.091-.036,.091,.036c2.467,.963,4.749,2.19,4.749,4.628s-2.287,3.667-4.758,4.642c-.572,.223-1.174,.446-1.774,.669l-.026,.018-.104,.038c-2.252,.834-5.337,1.976-5.337,3.451s3.085,2.617,5.337,3.451l.64,.237-.642,.232-.215-.193,.086,.235c-.606,.221-1.204,.443-1.781,.678l-.094,.038-.093-.037Z"/><path class="cls-13" d="M116.709,175.627c2.53,.987,4.59,2.17,4.59,4.395,0,2.239-2.06,3.408-4.6,4.409-.57,.222-1.17,.445-1.77,.668-.04,.014-.09,.028-.13,.056-2.48,.918-5.5,2.045-5.5,3.686s3.02,2.768,5.5,3.686c-.04,.014-.09,.028-.13,.042-.61,.222-1.21,.445-1.79,.681-2.53-1.001-4.58-2.184-4.58-4.409,0-2.239,2.06-3.408,4.59-4.409,.58-.223,1.18-.445,1.78-.668,.04-.014,.09-.028,.13-.042,2.48-.932,5.5-2.058,5.5-3.7s-3.02-2.768-5.5-3.672c.04-.028,.09-.042,.13-.056,.61-.222,1.21-.445,1.78-.668m0-.537l-.182,.071c-.567,.221-1.163,.442-1.77,.664-.061,.02-.151,.05-.244,.114l-.793,.55,.907,.331c2.06,.751,5.171,1.885,5.171,3.202,0,1.287-2.97,2.403-5.139,3.218l-.075,.025-.081,.026c-.612,.227-1.213,.45-1.795,.673-2.553,1.01-4.911,2.299-4.911,4.876s2.353,3.867,4.896,4.874l.187,.074,.186-.076c.545-.222,1.103-.43,1.773-.675l.125-.04,1.307-.46-1.299-.481c-2.06-.763-5.173-1.915-5.173-3.217s3.113-2.454,5.173-3.217l.06-.022,.052-.036,.063-.014c.588-.218,1.175-.436,1.733-.654,2.555-1.007,4.918-2.295,4.918-4.875s-2.359-3.866-4.908-4.861l-.182-.071h0Z"/></g><g><path class="cls-1" d="M112.786,175.859c-2.461-.987-4.737-2.235-4.737-4.655s2.282-3.651,4.749-4.627c.566-.231,1.154-.449,1.743-.668l.117-.04c2.306-.851,5.391-1.992,5.391-3.468,0-1.492-3.084-2.616-5.336-3.437l-.452-.165,.396-.275c.062-.043,.125-.064,.171-.08,.612-.227,1.209-.448,1.776-.683l.094-.039,.094,.037c2.471,.974,4.758,2.211,4.758,4.641s-2.287,3.667-4.758,4.641c-.572,.224-1.172,.446-1.772,.669l-.026,.019-.107,.038c-2.125,.774-5.336,1.945-5.336,3.437s3.085,2.631,5.337,3.465l.64,.237-.642,.232-.215-.193,.086,.235c-.606,.221-1.204,.442-1.781,.678l-.094,.038-.094-.038Z"/><path class="cls-13" d="M116.699,157.992c2.54,1.001,4.6,2.17,4.6,4.409s-2.06,3.408-4.6,4.409c-.57,.223-1.17,.445-1.77,.668-.04,.014-.09,.028-.13,.056-2.48,.904-5.5,2.044-5.5,3.672,0,1.641,3.02,2.782,5.5,3.7-.04,.014-.09,.028-.13,.042-.61,.222-1.21,.445-1.79,.681-2.53-1.015-4.58-2.198-4.58-4.423s2.06-3.394,4.59-4.395c.58-.236,1.18-.459,1.78-.681,.04-.014,.09-.028,.13-.042,2.48-.918,5.5-2.045,5.5-3.686s-3.02-2.768-5.5-3.672c.04-.028,.09-.042,.13-.056,.6-.222,1.2-.445,1.77-.681m-.005-.539l-.187,.078c-.559,.232-1.162,.456-1.746,.672-.065,.022-.156,.052-.248,.116l-.793,.55,.907,.331c2.06,.751,5.171,1.885,5.171,3.202,0,1.302-3.113,2.454-5.173,3.217l-.04,.012-.081,.026c-.615,.228-1.22,.452-1.804,.691-2.544,1.007-4.902,2.293-4.902,4.858s2.352,3.867,4.894,4.887l.188,.075,.187-.076c.546-.222,1.104-.431,1.773-.675l.125-.04,1.307-.46-1.299-.481c-2.06-.763-5.173-1.915-5.173-3.231s3.237-2.497,5.171-3.202l.061-.022,.053-.037,.061-.013c.588-.218,1.176-.437,1.735-.655,2.555-1.007,4.918-2.295,4.918-4.875s-2.363-3.867-4.917-4.874l-.188-.074h0Z"/></g><path class="cls-2" d="M116.709,175.627c-.57,.222-1.17,.445-1.78,.668-.04,.014-.09,.028-.13,.056-.04-.028-.09-.042-.13-.056-.61-.222-1.21-.445-1.79-.668,.58-.236,1.18-.459,1.79-.681,.04-.014,.09-.028,.13-.042l.12,.042c.61,.222,1.21,.445,1.79,.681Z"/><g><path class="cls-1" d="M114.658,158.934h0c-.678-.25-1.279-.473-1.862-.71-2.464-.975-4.746-2.211-4.746-4.626,0-2.928,3.322-4.14,6.534-5.312l.267-.097,.184,.806,.219,1.009-.311,.109c-2.308,.853-5.393,1.995-5.393,3.484s3.211,2.662,5.336,3.437l.101,.045c.632,.233,1.233,.457,1.805,.68l.579,.226-.574,.238c-.573,.237-1.176,.461-1.778,.685l-.145,.101-.215-.074Z"/><path class="cls-13" d="M114.669,148.52l.12,.529v.042l.17,.751-.04,.014c-.04,.014-.08,.028-.12,.042-2.48,.918-5.5,2.058-5.5,3.7,0,1.627,3.02,2.768,5.5,3.672,.04,.028,.09,.042,.13,.056,.6,.222,1.2,.445,1.77,.668-.57,.236-1.17,.459-1.77,.681-.04,.014-.09,.028-.13,.056-.04-.028-.09-.042-.13-.056-.6-.222-1.2-.445-1.78-.681-2.53-1.001-4.59-2.17-4.59-4.395,0-2.74,3.09-3.88,6.37-5.076m.362-.664l-.533,.194c-3.293,1.201-6.699,2.443-6.699,5.546,0,2.565,2.358,3.851,4.906,4.86,.58,.236,1.185,.461,1.79,.685l.242-.445-.183,.465,.286,.2,.244-.223c.619-.22,1.23-.447,1.807-.686l1.147-.476-1.156-.452c-.564-.22-1.157-.44-1.75-.66l-.008-.003-.056-.02-.053-.037-.043-.007c-1.934-.705-5.171-1.885-5.171-3.202s3.113-2.468,5.173-3.231l.11-.038,.423-.146-.059-.451-.158-.697h0s-.012-.097-.012-.097l-.12-.529-.126-.553h0Z"/></g><path class="cls-2" d="M114.919,192.567c.61,.222,1.21,.445,1.79,.681-.57,.223-1.17,.445-1.78,.668-.04,.014-.09,.028-.13,.056-.04-.028-.09-.042-.13-.056-.61-.222-1.21-.445-1.79-.668,.58-.236,1.18-.459,1.79-.681,.04-.014,.09-.028,.13-.042l.12,.042Z"/></g><g><g><path class="cls-1" d="M112.238,166.726c-2.452-.971-4.188-1.849-4.188-4.326,0-2.427,2.282-3.665,4.749-4.641,.583-.224,1.184-.447,1.784-.669l.027-.02,.104-.037c2.125-.774,5.336-1.945,5.336-3.437s-3.085-2.632-5.337-3.465l-.191-.071-.099-.244,.12-.765,.038-.175,.176-.687,.26,.095c3.359,1.229,6.533,2.391,6.533,5.312,0,2.418-2.287,3.653-4.758,4.627-.569,.236-1.172,.46-1.774,.683l-.026,.019-.105,.038c-2.252,.821-5.336,1.946-5.336,3.437,0,1.378,2.125,2.16,4.374,2.987l1.062,.392-.665,.228-.211-.195,.087,.234c-.598,.222-1.195,.443-1.772,.679l-.094,.038-.093-.037Z"/><path class="cls-13" d="M114.93,148.52c3.27,1.196,6.37,2.337,6.37,5.076,0,2.225-2.06,3.394-4.6,4.395-.57,.236-1.17,.459-1.77,.681-.04,.014-.09,.028-.13,.056-2.48,.904-5.5,2.031-5.5,3.672s2.46,2.452,4.94,3.37c-.04,.014-.09,.028-.13,.042-.6,.223-1.2,.445-1.78,.681-2.53-1.001-4.031-1.854-4.031-4.093s2.06-3.408,4.59-4.409c.58-.223,1.18-.445,1.78-.668,.04-.014,.09-.028,.13-.056,2.48-.904,5.5-2.044,5.5-3.672,0-1.641-3.02-2.782-5.5-3.7-.04-.014-.09-.028-.13-.042l.12-.765v-.042l.03-.097,.11-.431m-.347-.659l-.137,.535-.11,.431-.023,.075-.022,.072v.075l-.114,.729-.065,.414,.396,.137,.078,.025,.049,.016c2.053,.76,5.166,1.912,5.166,3.228s-3.237,2.497-5.171,3.202l-.062,.023-.054,.038c-.618,.219-1.219,.442-1.801,.665-2.553,1.01-4.911,2.299-4.911,4.876,0,2.629,1.884,3.583,4.347,4.558l.187,.074,.186-.076c.576-.234,1.17-.455,1.765-.676l.121-.039,1.311-.459-1.303-.482-.405-.149c-2.069-.761-4.209-1.549-4.209-2.752,0-1.317,3.112-2.451,5.171-3.202l.061-.022,.053-.037c.619-.22,1.23-.447,1.807-.686,2.545-1.003,4.909-2.289,4.909-4.857,0-3.096-3.405-4.341-6.698-5.546l-.519-.19h0Z"/></g><g><path class="cls-1" d="M112.074,184.386c-2.669-1.056-4.024-2.021-4.024-4.364,0-2.44,2.277-3.667,4.739-4.628,.579-.236,1.183-.46,1.795-.683l.216,.193-.087-.234c2.252-.833,5.337-1.975,5.337-3.465,0-1.324-2.09-2.076-4.303-2.872l-1.036-.376,.396-.275c.063-.044,.132-.067,.176-.082,.657-.244,1.23-.456,1.776-.669l.091-.036,.092,.036c2.522,.995,4.309,1.883,4.309,4.273,0,2.417-2.281,3.666-4.747,4.655-.573,.224-1.175,.448-1.786,.67l-.027,.019-.104,.037c-2.252,.821-5.336,1.946-5.336,3.437,0,1.454,2.211,2.285,4.552,3.164l.652,.245-.597,.249-.13,.042c-.594,.22-1.192,.442-1.771,.665l-.091,.035-.091-.036Z"/><path class="cls-13" d="M117.149,167.163c2.54,1.001,4.15,1.816,4.15,4.041s-2.06,3.407-4.59,4.423c-.57,.222-1.17,.445-1.78,.668-.04,.014-.09,.028-.13,.056-2.48,.904-5.5,2.031-5.5,3.672s2.296,2.49,4.776,3.422c-.04,.014-.09,.028-.13,.042-.6,.223-1.2,.445-1.78,.668-2.53-1.001-3.866-1.892-3.866-4.131,0-2.225,2.05-3.408,4.58-4.395,.58-.236,1.18-.459,1.79-.681,.04-.014,.09-.028,.13-.042,2.48-.918,5.5-2.058,5.5-3.7,0-1.627-2.57-2.414-5.05-3.318,.04-.028,.09-.042,.13-.056,.6-.223,1.2-.445,1.77-.668m0-.537l-.183,.071c-.555,.217-1.138,.433-1.722,.65-.097,.034-.188,.064-.281,.128l-.791,.55,.905,.33,.584,.211c2.034,.732,4.137,1.489,4.137,2.637,0,1.316-3.113,2.468-5.173,3.231l-.041,.012-.08,.026c-.688,.251-1.255,.463-1.814,.691-2.538,.99-4.892,2.266-4.892,4.858,0,2.719,1.894,3.69,4.182,4.596l.181,.072,.182-.07c.578-.222,1.176-.444,1.774-.666l.122-.039,1.297-.456-1.287-.484-.062-.024c-2.257-.848-4.389-1.649-4.389-2.93,0-1.317,3.112-2.451,5.171-3.202l.061-.022,.053-.037c.63-.221,1.234-.445,1.807-.668,2.551-1.024,4.908-2.323,4.908-4.889,0-2.548-1.852-3.475-4.467-4.506l-.183-.072h0Z"/></g><polygon class="cls-2" points="114.76 149.174 114.789 149.049 114.789 149.063 114.76 149.174"/><g><path class="cls-1" d="M112.079,202.021c-2.673-1.058-4.03-2.023-4.03-4.363,0-2.431,2.277-3.667,4.738-4.642,.58-.237,1.184-.46,1.796-.684l.216,.193-.087-.234c2.252-.833,5.337-1.975,5.337-3.451,0-1.44-2.209-2.257-4.548-3.123l-.572-.211,.394-.273c.062-.043,.125-.064,.171-.08l.134-.049c.559-.207,1.116-.414,1.646-.622l.091-.036,.092,.036c2.715,1.07,4.093,2.038,4.093,4.358,0,2.428-2.282,3.666-4.748,4.641-.571,.224-1.174,.447-1.785,.67l-.026,.019-.104,.037c-2.125,.774-5.336,1.945-5.336,3.451,0,1.485,2.353,2.343,4.628,3.172l.446,.163-.387,.276c-.064,.045-.133,.068-.179,.083-.619,.226-1.219,.448-1.797,.669l-.092,.035-.09-.036Z"/><path class="cls-13" d="M117.365,184.714c2.54,1.001,3.935,1.887,3.935,4.126,0,2.225-2.06,3.408-4.59,4.409-.57,.223-1.17,.445-1.78,.668-.04,.014-.09,.028-.13,.056-2.48,.904-5.5,2.044-5.5,3.686s2.312,2.503,4.792,3.407c-.04,.028-.09,.042-.13,.056-.61,.223-1.21,.445-1.79,.668-2.53-1.001-3.873-1.905-3.873-4.131s2.05-3.407,4.58-4.409c.58-.236,1.18-.459,1.79-.681,.04-.014,.09-.028,.13-.042,2.48-.918,5.5-2.044,5.5-3.686s-2.354-2.485-4.834-3.403c.04-.028,.09-.042,.13-.056,.6-.223,1.2-.445,1.77-.668m0-.537l-.183,.071c-.555,.217-1.139,.433-1.722,.65-.098,.034-.188,.064-.281,.128l-.789,.547,.9,.333,.123,.045c2.255,.834,4.385,1.622,4.385,2.888,0,1.302-3.113,2.454-5.173,3.217l-.041,.013-.08,.026c-.688,.251-1.255,.463-1.814,.691-2.539,1.005-4.892,2.292-4.892,4.872,0,2.717,1.897,3.688,4.188,4.596l.181,.072,.182-.07c.578-.222,1.175-.443,1.782-.665,.061-.02,.153-.051,.247-.116l.782-.551-.899-.328c-2.195-.8-4.464-1.627-4.464-2.938,0-1.331,3.237-2.511,5.171-3.216l.061-.022,.053-.037c.629-.22,1.233-.444,1.807-.668,2.55-1.009,4.908-2.298,4.908-4.875,0-2.696-1.925-3.674-4.251-4.591l-.183-.072h0Z"/></g><polygon class="cls-2" points="114.889 148.506 114.819 148.951 114.789 149.049 114.889 148.506"/><g><path class="cls-1" d="M114.685,211.599l-.303-1.562,.206-.071,.211,.195-.087-.234c2.252-.833,5.337-1.975,5.337-3.451,0-1.492-2.541-2.418-4.784-3.235l-.452-.165,.396-.275c.063-.044,.132-.067,.177-.082,.617-.225,1.214-.447,1.78-.682l.094-.039,.095,.038c2.721,1.092,4.195,2.123,4.195,4.439,0,2.894-3.138,4.055-6.46,5.284l-.276,.103-.128-.263Z"/><path class="cls-13" d="M117.262,202.269c2.53,1.015,4.038,1.981,4.038,4.207,0,2.74-3.1,3.866-6.37,5.077l-.13-.682-.13-.668c.04-.014,.09-.028,.13-.042,2.48-.918,5.5-2.045,5.5-3.686s-2.468-2.566-4.948-3.47c.04-.028,.09-.042,.13-.056,.61-.222,1.21-.445,1.78-.681m-.003-.54l-.188,.078c-.584,.242-1.214,.475-1.76,.674-.062,.02-.152,.051-.244,.114l-.794,.55,.907,.331c2.165,.789,4.619,1.684,4.619,3,0,1.302-3.113,2.454-5.173,3.217l-.04,.012-.081,.026-.41,.142,.083,.425,.13,.668,.13,.68,.111,.58,.554-.205,.074-.027c3.256-1.205,6.623-2.451,6.623-5.518,0-2.701-2.058-3.75-4.352-4.671l-.189-.076h0Z"/></g></g></g></g></g></svg>